<?xml version="1.0" encoding="utf-8"?>
<!-- Generator: Adobe Illustrator 16.0.0, SVG Export Plug-In . SVG Version: 6.00 Build 0)  -->
<!DOCTYPE svg PUBLIC "-//W3C//DTD SVG 1.1//EN" "http://www.w3.org/Graphics/SVG/1.1/DTD/svg11.dtd">
<svg version="1.1" id="Layer_1" xmlns="http://www.w3.org/2000/svg" xmlns:xlink="http://www.w3.org/1999/xlink" x="0px" y="0px"
	 width="276.254px" height="92.357px" viewBox="0 0 276.254 92.357" enable-background="new 0 0 276.254 92.357"
	 xml:space="preserve">
<g>
	<path d="M84.282,59.704c-5.28,17.951-16.799,25.438-28.222,25.438c-2.784,0-5.088-0.288-7.295-1.152
		c-6.24,5.088-14.111,7.295-21.502,7.295c-14.975,0-25.726-9.119-25.726-20.254c0-2.4,0.479-4.8,1.439-7.199v0.096
		C6.432,55.48,14.687,51.257,23.23,51.545c10.271,0.288,15.455,6.624,20.351,12.575c0-0.479,0.096-0.864,0.096-1.344
		c0-6.624-4.8-12.575-9.503-18.527c-4.992-6.335-10.271-13.055-10.271-20.83c0-1.824,0.288-3.744,0.96-5.76
		C28.03,7.964,37.438,2.588,47.229,2.588c12.959,0,21.502,9.503,20.734,19.871v-0.096c-0.384,6.527-4.224,10.463-9.599,10.463
		c-4.896,0-8.543-3.648-8.543-8.062c0-2.881,1.632-5.568,3.84-6.912c-1.152-1.824-3.264-2.977-5.76-3.167
		c-3.552-0.288-6.815,1.823-7.775,4.99c-0.288,0.769-0.384,1.44-0.384,2.305c0,4.127,3.84,8.639,7.871,13.438
		C53.277,42.137,59.9,50.201,59.9,60.76c0,2.399-0.384,4.991-1.152,7.871c-0.48,1.633-1.056,3.168-1.728,4.513
		c6.047,0,11.711-4.704,15.646-15.743C73.819,50.585,86.298,52.697,84.282,59.704z M37.341,75.543
		c-1.056-1.248-2.016-2.496-2.88-3.647c-3.36-4.319-6.432-8.255-10.847-8.255c-3.36-0.097-6.335,2.016-7.392,5.088
		c-0.192,0.672-0.288,1.344-0.288,2.016c0,4.512,4.799,8.448,11.135,8.448C30.718,79.191,34.461,77.751,37.341,75.543z"/>
	<path d="M133.435,62.296c-0.768,2.017-1.248,2.977-2.016,4.704c-6.624,13.823-15.743,18.144-23.711,18.144
		c-2.976,0-10.271-0.864-13.15-5.76c-3.456,3.072-7.968,4.896-12.287,4.896c-8.448,0-14.879-6.527-14.879-14.495
		c0-1.728,0.384-3.456,0.959-5.184l9.023-25.438c2.784-7.295,9.503-10.847,15.839-10.847c5.279,0,9.119,1.728,11.039,2.976
		c4.607-5.759,16.318-3.167,13.055,6.528l-10.751,30.718c-0.288,1.056-0.48,2.017-0.48,2.784c0,1.536,0.96,2.4,2.592,2.4
		c4.32,0,9.12-4.225,13.344-14.304C124.699,50.969,137.179,53.081,133.435,62.296z M93.981,62.776l3.456-9.887
		c3.167-9.312-1.344-10.367-1.536-10.464c-0.288-0.191-4.224-1.823-7.199,6.335L83.71,63.64c-0.672,1.92-1.439,5.951,1.729,6.72
		C87.262,70.743,91.102,69.879,93.981,62.776z"/>
	<path d="M186.137,59.896c-6.814,19.967-17.277,25.63-26.398,25.63c-5.758,0-10.941-2.496-13.727-6.624
		c-3.552,3.84-8.447,6.719-14.207,6.719c-8.063,0-14.399-5.279-14.399-13.055c0-1.632,0.288-3.36,0.864-5.088l11.808-33.021
		c3.455-9.982,16.895-4.992,13.343,4.127l-11.039,30.238c-0.288,0.96-0.48,1.92-0.48,2.688c0,1.44,0.769,2.4,2.208,2.4
		c3.84,0,8.544-4.32,11.231-9.599l10.56-29.758c3.553-10.08,16.606-5.28,13.438,3.455l-11.423,32.351
		c-0.191,0.479-0.288,1.056-0.288,1.439c0,1.345,1.151,2.305,2.88,2.305c4.415,0,9.695-4.896,14.016-16.415
		C176.825,50.297,188.439,53.081,186.137,59.896z"/>
	<path d="M229.049,59.704c-6.145,17.471-20.158,25.534-34.365,25.534c-14.11,0-23.711-7.967-23.711-19.007
		c0-2.112,0.385-4.416,1.152-6.719l5.473-16.128c3.454-10.078,11.807-14.591,19.965-14.591c10.465,0,17.855,9.983,13.631,21.406
		c-4.318,11.327-17.183,4.896-13.246-2.688c1.729-3.36,1.345-6.145-1.633-6.337c-1.631-0.096-3.551,1.345-4.414,3.744v-0.096
		l-5.952,16.703c-0.384,1.248-0.575,2.399-0.575,3.456c0,4.896,4.225,8.639,10.848,8.639c7.295,0,16.606-4.512,21.502-16.895
		C220.121,49.817,231.544,52.697,229.049,59.704z"/>
	<path d="M274.359,60.28c-6.334,18.334-21.502,25.054-34.846,25.054c-14.015,0-24.766-7.296-24.766-18.719
		c0-2.208,0.479-4.512,1.248-6.815l5.663-16.415c3.36-9.599,11.711-14.591,20.254-14.591c10.848,0,18.047,7.007,18.047,16.127
		c0,1.632-0.287,3.456-0.769,5.279c-2.592,8.64-10.271,14.111-19.008,14.111c-3.838,0-7.293-1.152-10.078-2.88l-0.769,1.823
		c-0.384,0.96-0.479,1.824-0.479,2.688c0,4.416,4.416,7.967,11.424,7.967c8.158,0,18.238-4.704,22.461-15.839
		C264.759,51.353,276.951,52.601,274.359,60.28z M235.962,44.825l-2.017,5.76c3.647,1.92,10.177,1.92,11.712-3.168
		c0.286-0.768,0.385-1.536,0.385-2.304c0-2.688-1.729-4.896-4.416-4.896C239.418,40.218,237.113,41.945,235.962,44.825z"/>
</g>
</svg>
